# xmcd
#
# Track frame offsets:
#	150
#	12803
#	26919
#	42707
#	62241
#	77239
#	92910
#	110276
#	120660
#	136260
#	154528
#	170234
#	185575
#	200536
#	213909
#
# Disc length: 3061 seconds
#
# Revision: 0
# Processed by: cddbd v1.5.1PL0 Copyright (c) Steve Scherf et al.
# Submitted via: dBpowerAMP V4.0
#
DISCID=d50bf30f
DTITLE=Julio Preciado - Julio Preciado
DYEAR=2002
DGENRE=Banda
TTITLE0=Julio Preciado-Las dos Monedas
TTITLE1=Julio Preciado-Chaparrita Enlutadita
TTITLE2=Julio Preciado-Mira nomas
TTITLE3=Julio Preciado-Popurri
TTITLE4=Julio Preciado-Si me dejas Ahora
TTITLE5=Julio Preciado-Cuando me de la Gana
TTITLE6=Julio Preciado-Mira como baila
TTITLE7=Julio Preciado-Porque No Te Vas
TTITLE8=Julio Preciado-La Silla Vacia
TTITLE9=Julio Preciado-Me Caiste Del Cielo
TTITLE10=No me Digas Que Te Vas
TTITLE11=Julio Preciado-Mi Llanto Vale Mas
TTITLE12=Julio Preciado-Que Puedo Hacer Por ti
TTITLE13=Julio Preciado-Y Que Dijiste Tu
TTITLE14=Julio Preciado-Mirame
EXTD=Julio Preciado by David Ortiz
EXTT0=
EXTT1=
EXTT2=
EXTT3=
EXTT4=
EXTT5=
EXTT6=
EXTT7=
EXTT8=
EXTT9=
EXTT10=
EXTT11=
EXTT12=
EXTT13=
EXTT14=
PLAYORDER=
